<?xml version="1.0" encoding="UTF-8"?><svg id="a" xmlns="http://www.w3.org/2000/svg" viewBox="0 0 280.2 96.15"><defs><style>.b{fill:#fff;stroke:#fff;stroke-miterlimit:10;stroke-width:2px;}.c{fill:#b5b5b6;}.d{fill:#9fa0a0;}</style></defs><path class="d" d="M196.88,71.56L160.91,0h-10.31l39.5,79.06h-5.89L146.33,.06h-15.92l-37.89,78.99h-5.89L126.13,0h-10.31l-35.96,71.56H38.89l11.83,24.59h53.53l11.34-24.51h45.56l11.34,24.51h53.53l11.83-24.59h-40.97Zm-152.03,7.49l-2.38-4.51h39.23L117.66,2.98h3.65l-38.01,76.07H44.85Zm93.52-24.75h-16.17l16.17-36.34,16.17,36.34h-16.17Zm55.07,24.75L155.43,2.98h3.65l35.96,71.56h39.23l-2.38,4.51h-38.45Z"/><rect class="b" x="1" y="24.33" width="274.74" height="41.14"/><g><path class="c" d="M5.21,65.47v-5.68H25.99v5.68H5.21Zm14.11-9.84l1.47-24.89c-.07-.66-.31-.99-.73-.99h-.73c-.42,0-.66,.33-.73,.99l-7.31,24.89H5.47l7.52-25.83c.17-1.77,.75-3.17,1.74-4.19s2.49-1.54,4.5-1.54h.99c1.98,0,3.44,.51,4.4,1.54s1.54,2.42,1.75,4.19l-.8,25.83h-6.25Z"/><path class="c" d="M29.22,65.47v-5.68h22.97v5.68H29.22Zm.52-41.14h21.04v5.73h-15.26v5.94h14.17v5.68h-14.17v3.33c0,.97,.25,1.76,.75,2.37,.5,.61,1.28,.91,2.32,.91h12.19v5.73h-13.02c-2.5,0-4.46-.71-5.88-2.13-1.42-1.42-2.14-3.49-2.14-6.2V24.33Z"/><path class="c" d="M63.48,49.28c-2.6,0-4.5-.59-5.7-1.77s-1.8-3.18-1.8-5.99v-7.13h11.3v-4.01h-10.99v-5.68h16.98v15.1h-11.35v1.25c0,.9,.18,1.55,.55,1.95,.36,.4,.98,.6,1.85,.6h9.58v5.68h-10.41Zm13.4,7.03c-.17-.38-.34-.66-.49-.83-.16-.17-.44-.26-.86-.26h-.16c-.38,0-.65,.09-.81,.26-.15,.18-.32,.45-.49,.83l-9.03,9.16h-6.77l10.8-12.76c.45-.8,1.07-1.45,1.85-1.95,.78-.5,1.9-.75,3.36-.75h2.34c1.42,0,2.54,.25,3.36,.75,.82,.5,1.43,1.15,1.85,1.95l2.17,12.76h-6.82l-.29-9.16Zm6.18-31.98v24.94h-5.99V24.33h5.99Z"/><path class="c" d="M105.32,54.95c0,3.3-.63,5.81-1.9,7.52s-3.2,2.58-5.81,2.58-4.53-.85-5.78-2.55c-1.25-1.7-1.88-4.22-1.88-7.55v-20.83c0-3.33,.63-5.84,1.88-7.52,1.25-1.68,3.18-2.53,5.78-2.53s4.54,.85,5.81,2.55c1.27,1.7,1.9,4.2,1.9,7.5v20.83Zm-9.43,.73c0,1.53,.15,2.54,.44,3.04,.29,.5,.72,.76,1.28,.76s.99-.27,1.3-.81,.47-1.54,.47-2.99v-22.24c0-1.46-.16-2.46-.47-2.99s-.75-.81-1.3-.81-.98,.25-1.28,.75c-.29,.5-.44,1.52-.44,3.05v22.24Zm16.71,9.79h-5.78V24.33h5.78v17.13h1.67V24.33h5.73v41.14h-5.73v-18.33h-1.67v18.33Z"/><path class="c" d="M132.08,65.06c-2.6,0-4.45-.58-5.55-1.74s-1.64-3.17-1.64-6.01V24.33h5.94V56.78c0,1.01,.2,1.68,.6,2.03,.4,.35,1,.52,1.8,.52h8.18v5.73h-9.32Zm18.64-40.72v41.14h-5.99V24.33h5.99Z"/><path class="c" d="M155.67,24.59h17.39v7.65h3.44v-7.91h5.94v21.82h-5.94v-8.18h-3.44v7.81h-10.68c-2.26,0-3.94-.54-5.05-1.61-1.11-1.07-1.67-3.04-1.67-5.88v-13.69Zm3.44,29.79h17.39v-1.77h-17.39v-5.05h23.33v11.4h-17.34v.73c0,.59,.29,.89,.89,.89h17.03v5.1h-19.06c-1.56,0-2.76-.4-3.59-1.2s-1.25-2-1.25-3.59v-6.51Zm2.5-16.25c0,.76,.1,1.28,.31,1.56,.21,.28,.71,.42,1.51,.42h3.64v-9.79h-5.47v7.81Z"/><path class="c" d="M207.71,65.47h-18.85v-5.68h2.08V30.32h-2.19v-5.68h18.9v5.68h-2.29v29.47h2.34v5.68Zm-8.18-35.15h-2.76v29.47h2.76V30.32Zm16.09-5.99v17.13h3.02v5.68h-3.02v18.33h-5.99V24.33h5.99Z"/><path class="c" d="M221.41,33.08c0-2.81,.82-5.02,2.45-6.61,1.63-1.6,3.75-2.4,6.35-2.4s4.72,.8,6.35,2.4c1.63,1.6,2.45,3.8,2.45,6.61v6.35c0,1.42-.22,2.69-.65,3.8-.43,1.11-1.03,2.07-1.79,2.86-.76,.8-1.69,1.4-2.79,1.82-1.09,.42-2.28,.63-3.57,.63s-2.52-.21-3.59-.63c-1.08-.42-2-1.02-2.76-1.82-.76-.8-1.36-1.75-1.8-2.86-.43-1.11-.65-2.38-.65-3.8v-6.35Zm9.48,32.39c-4.31,0-6.46-2.05-6.46-6.15v-8.23h5.94v6.93c0,.8,.16,1.33,.47,1.61,.31,.28,.85,.42,1.61,.42h10.05V24.33h5.68v41.14h-17.29Zm-3.49-25.98c0,1.32,.29,2.23,.89,2.73,.59,.5,1.23,.75,1.93,.75s1.34-.25,1.93-.75c.59-.5,.88-1.42,.88-2.73v-6.41c0-1.28-.29-2.19-.88-2.71-.59-.52-1.23-.78-1.93-.78s-1.34,.26-1.93,.78c-.59,.52-.89,1.42-.89,2.71v6.41Z"/><path class="c" d="M253.54,24.64h16.77v5.68h-10.83v26.4c0,.9,.17,1.56,.52,1.95s.97,.6,1.88,.6h8.75v5.73h-9.9c-1.25,0-2.34-.13-3.25-.39-.92-.26-1.67-.69-2.24-1.3-.57-.61-1-1.41-1.28-2.42-.28-1.01-.42-2.24-.42-3.7V24.64Zm26.66-.31v41.14h-5.94v-19.06h-6.35v-5.73h6.35V24.33h5.94Z"/></g></svg>